<svg width="512" height="512" viewBox="0 0 512 512" fill="none" xmlns="http://www.w3.org/2000/svg">
<rect width="512" height="512" rx="256" fill="white"/>
<path fill-rule="evenodd" clip-rule="evenodd" d="M258.279 64.7423C257.235 64.2703 256.038 64.2687 254.993 64.7381L88.3616 139.552C86.9246 140.197 86 141.626 86 143.201V193.601C86 195.201 86.9536 196.647 88.4243 197.277L93.91 199.629V360.587C93.91 366.764 97.4656 372.39 103.045 375.04L249.728 444.714C254.102 446.792 259.182 446.777 263.543 444.673L411.432 373.351C416.964 370.683 420.481 365.083 420.481 358.94V198.578L423.617 197.324C425.135 196.717 426.131 195.246 426.131 193.61V143.202C426.131 141.631 425.211 140.205 423.779 139.557L258.279 64.7423ZM153.8 225.908L102.95 203.571V354.873C102.95 361.05 106.506 366.676 112.085 369.326L153.8 389.14V225.908ZM158.32 227.894V391.287L184.31 403.633V239.311L158.32 227.894ZM188.83 241.297V405.78L246.394 433.123C249.049 434.383 252.111 432.448 252.111 429.51V271.706C252.111 270.119 251.172 268.682 249.719 268.044L188.83 241.297ZM325.561 404.728L266.888 433.024C264.232 434.305 261.151 432.37 261.151 429.421V271.686C261.151 270.104 262.083 268.671 263.53 268.029L325.561 240.533V404.728ZM356.071 390.014L330.081 402.548V238.53L356.071 227.009V390.014ZM360.591 225.006L411.441 202.466V353.263C411.441 359.406 407.924 365.006 402.392 367.675L360.591 387.834V225.006ZM325.561 230.645L266.772 256.704C264.127 257.876 261.151 255.94 261.151 253.047V222.521C261.151 220.941 262.081 219.51 263.524 218.867L325.561 191.248V230.645ZM356.071 217.121L330.081 228.641V189.235L356.071 177.664V217.121ZM360.591 175.652L414.278 151.75C415.601 151.162 417.091 152.13 417.091 153.578V187.49C417.091 189.125 416.095 190.596 414.577 191.204L414.205 191.352L360.591 215.117V175.652ZM313.296 183.148C314.888 183.846 314.895 186.101 313.307 186.808L258.246 211.321C257.213 211.781 256.035 211.782 255.001 211.325L200.506 187.229C198.92 186.527 198.917 184.277 200.502 183.572L256.953 158.469L313.296 183.148ZM323.839 182.119C323.325 182.348 322.738 182.35 322.223 182.124L257.852 153.928L170.689 116.169C169.094 115.478 169.079 113.221 170.665 112.509L191.831 103.006C192.33 102.782 192.899 102.772 193.406 102.978L255.939 128.474L289.741 143.105L344.937 169.107C346.486 169.836 346.462 172.047 344.898 172.743L323.839 182.119ZM159.725 168.448C159.202 168.692 158.598 168.698 158.07 168.465L105.731 145.322C104.148 144.621 104.141 142.377 105.72 141.668L160.14 117.235C160.653 117.004 161.239 117.001 161.754 117.224L217.583 141.421L159.725 168.448ZM191.614 182.578C191.098 182.808 190.509 182.808 189.992 182.58L168.412 173.038C166.841 172.343 166.819 170.123 168.374 169.396L223.124 143.822L251.321 156.027L191.614 182.578ZM202.636 101.86C201.007 101.196 200.967 98.9042 202.571 98.1837L253.336 75.3913C255.427 74.4526 257.82 74.4556 259.908 75.3997L310.96 98.4778C312.564 99.2029 312.517 101.497 310.884 102.155L256.819 123.952L202.636 101.86ZM341.369 112.224C342.94 112.935 342.936 115.168 341.363 115.872L290.657 138.575L262.675 126.464L320.13 103.301C320.636 103.097 321.204 103.109 321.702 103.334L341.369 112.224ZM350.103 116.911C350.625 116.677 351.222 116.679 351.744 116.914L406.506 141.67C408.079 142.381 408.073 144.617 406.496 145.32L355.177 168.167C354.645 168.404 354.037 168.397 353.511 168.149L296.086 141.097L350.103 116.911ZM153.8 176.461L97.8488 151.721C96.5267 151.136 95.04 152.104 95.04 153.55V187.64C95.04 189.24 95.9936 190.686 97.4644 191.317L100.229 192.501L153.8 216.034V176.461ZM158.32 178.46V218.02L184.31 229.437V189.952L158.32 178.46ZM188.83 191.951V231.423L246.502 256.757C249.145 257.918 252.111 255.982 252.111 253.095V222.537C252.111 220.953 251.176 219.519 249.728 218.878L188.83 191.951Z" fill="#156999"/>
</svg>
