<svg width="284" height="96" viewBox="0 0 284 96" fill="none" xmlns="http://www.w3.org/2000/svg">
<path d="M12.1241 41.576C18.2201 41.576 22.7321 38.696 22.7321 33.416C22.7321 29.24 20.1401 26.936 13.6601 25.496L12.7961 25.304C10.3961 24.776 8.90812 24.152 8.90812 22.664C8.90812 21.08 10.3001 20.264 12.5081 20.264C15.1961 20.264 18.4121 21.512 20.3321 22.856L21.8681 18.248C19.9001 16.856 16.4921 15.272 12.1721 15.272C6.31612 15.272 1.90012 18.056 1.90012 23.336C1.90012 27.512 4.44412 29.576 10.8761 31.016L11.7401 31.208C14.1401 31.784 15.6761 32.456 15.6761 34.04C15.6761 35.624 14.2361 36.584 11.7401 36.584C8.47612 36.584 5.06812 35.048 3.19612 33.608L1.51612 38.072C3.43612 39.752 7.27612 41.576 12.1241 41.576ZM24.5996 41H32.1356V26.168C32.1356 23.384 33.9596 21.224 36.8876 21.224C39.5276 21.224 41.2556 22.76 41.2556 26.168V41H48.7916V25.16C48.7916 18.344 45.3356 15.272 39.5276 15.272C36.4556 15.272 33.9116 16.52 32.1356 18.488V5.096H24.5996V41ZM64.8817 41.576C73.2817 41.576 79.1857 36.2 79.1857 28.424C79.1857 20.648 73.2817 15.272 64.8817 15.272C56.4337 15.272 50.5297 20.648 50.5297 28.424C50.5297 36.2 56.4337 41.576 64.8817 41.576ZM58.2577 28.424C58.2577 24.008 60.9457 20.792 64.8817 20.792C68.8177 20.792 71.5057 24.008 71.5057 28.424C71.5057 32.84 68.8177 36.056 64.8817 36.056C60.9457 36.056 58.2577 32.84 58.2577 28.424ZM81.159 50.984H88.695V37.976C90.567 40.232 93.351 41.576 96.903 41.576C104.103 41.576 109.431 36.2 109.431 28.424C109.431 20.648 104.103 15.272 96.903 15.272C93.063 15.272 90.087 16.856 88.215 19.496V15.848H81.159V50.984ZM88.695 28.424C88.695 23.912 91.383 20.888 95.223 20.888C99.063 20.888 101.703 23.912 101.703 28.424C101.703 32.936 99.063 35.96 95.223 35.96C91.383 35.96 88.695 32.936 88.695 28.424ZM67.9286 89.576C76.3286 89.576 82.2326 84.2 82.2326 76.424C82.2326 68.648 76.3286 63.272 67.9286 63.272C59.4806 63.272 53.5766 68.648 53.5766 76.424C53.5766 84.2 59.4806 89.576 67.9286 89.576ZM61.3046 76.424C61.3046 72.008 63.9926 68.792 67.9286 68.792C71.8646 68.792 74.5526 72.008 74.5526 76.424C74.5526 80.84 71.8646 84.056 67.9286 84.056C63.9926 84.056 61.3046 80.84 61.3046 76.424ZM100.862 74.168V89H108.398V73.16C108.398 66.344 104.942 63.272 99.1339 63.272C95.7739 63.272 93.0379 64.76 91.2619 67.112V63.848H84.2059V89H91.7419V74.168C91.7419 71.384 93.5659 69.224 96.4939 69.224C99.1339 69.224 100.862 70.76 100.862 74.168Z" fill="white"/>
<path fill-rule="evenodd" clip-rule="evenodd" d="M127.744 8.73615C126 12.1587 126 16.6392 126 25.6V70.4C126 79.3608 126 83.8413 127.744 87.2638C129.278 90.2744 131.726 92.7221 134.736 94.2561C138.159 96 142.639 96 151.6 96H258.4C267.361 96 271.841 96 275.264 94.2561C278.274 92.7221 280.722 90.2744 282.256 87.2638C284 83.8413 284 79.3608 284 70.4V25.6C284 16.6392 284 12.1587 282.256 8.73615C280.722 5.72556 278.274 3.27787 275.264 1.7439C271.841 0 267.361 0 258.4 0H151.6C142.639 0 138.159 0 134.736 1.7439C131.726 3.27787 129.278 5.72556 127.744 8.73615ZM178.51 67H148.438V26.232H177.95V35.752H160.534V41.632H176.27V50.816H160.534V57.48H178.51V67ZM204.63 65.544C202.558 66.664 198.582 67.672 194.718 67.672C188.502 67.672 184.638 63.304 184.638 56.752V45.776H180.382V40.512L181.39 39.84C183.91 38.16 186.71 35.248 189.286 30.824L189.678 30.152H195.95V37.656H204.07V45.776H195.95V56.248C195.95 58.656 197.574 60.056 199.534 60.056C200.654 60.056 202.614 59.832 203.734 59.608L204.63 65.544ZM232.796 57.704C232.796 64.2 227.308 67.672 219.691 67.672C213.588 67.672 208.715 65.432 206.588 63.752L208.883 57.088C211.067 58.488 215.38 60.336 219.076 60.336C221.315 60.336 222.268 59.664 222.268 58.656C222.268 57.368 220.644 56.92 218.908 56.528L217.899 56.304C210.116 54.568 206.924 52.16 206.924 47.064C206.924 40.512 212.411 36.984 219.86 36.984C225.292 36.984 229.38 38.944 231.619 40.288L229.492 47.176C227.252 45.832 223.331 44.32 220.42 44.32C218.46 44.32 217.451 44.992 217.451 45.944C217.451 47.176 219.076 47.624 220.812 48.016L221.82 48.24C229.66 49.976 232.796 52.552 232.796 57.704ZM265.963 37.656L250.171 78.648H239.195L244.963 68.568L232.587 37.656H244.683L250.619 54.68L256.331 37.656H265.963Z" fill="white"/>
</svg>
