<svg width="490" height="128" viewBox="0 0 490 128" fill="none" xmlns="http://www.w3.org/2000/svg">
<path fill-rule="evenodd" clip-rule="evenodd" d="M253.488 17.4723C250 24.3175 250 33.2783 250 51.2V76.8C250 94.7217 250 103.683 253.488 110.528C256.556 116.549 261.451 121.444 267.472 124.512C274.317 128 283.278 128 301.2 128H438.8C456.722 128 465.683 128 472.528 124.512C478.549 121.444 483.444 116.549 486.512 110.528C490 103.683 490 94.7217 490 76.8V51.2C490 33.2783 490 24.3175 486.512 17.4723C483.444 11.4511 478.549 6.55574 472.528 3.48779C465.683 0 456.722 0 438.8 0H301.2C283.278 0 274.317 0 267.472 3.48779C261.451 6.55574 256.556 11.4511 253.488 17.4723ZM305.582 57.7315V35.9038C305.582 34.9955 305.582 34.7121 307.102 34.7085H325.858C329.155 34.7085 330.936 37.3498 332.11 42.6577L333.315 46.8031H336.586C336.902 34.9955 337.188 30 337.188 30C337.188 30 329.159 30.8501 324.397 30.8501H300.534L288 30.5958V33.8329L292.16 34.7049C295.17 35.3007 296.058 35.8965 296.058 38.5378C296.058 38.5378 296.374 46.5161 296.374 59.7696C296.374 73.0559 296.058 81.0306 296.058 81.0306C296.058 83.3885 295.17 84.2677 292.16 84.8635L288 85.7718V88.9798L300.82 88.6964H322.304C327.066 88.6964 338.396 88.9798 338.396 88.9798C338.682 86.0551 340.173 73.0559 340.488 71.5809H337.478L334.236 78.6763C331.824 84.2677 327.955 84.5801 324.081 84.5801H311.548C307.388 84.5801 305.582 83.076 305.582 79.5555V61.2483C305.582 61.2483 314.532 61.2483 317.513 61.5608C319.896 61.8441 321.1 62.4436 321.989 65.3937L322.877 69.5391H326.464L326.148 58.9231L326.75 48.5615H323.193L321.989 53.3027C321.387 56.5398 320.785 56.8523 317.513 57.419C313.354 57.7315 305.582 57.7315 305.582 57.7315ZM357.468 38.2326H353.881C352.104 47.9657 347.658 51.5152 341.689 52.1111V55.0611H348.804V79.8716C348.804 86.6546 353.624 90.1751 359.561 90.1751C364.352 90.1751 369.4 88.1042 371.177 83.9879L369.4 81.917C368.511 83.3921 366.103 85.1796 362.861 85.1796C359.274 85.1796 357.182 82.7962 357.182 76.6091V54.7523L369.113 55.6606L369.715 50.0402L357.468 50.636V38.2326ZM381.93 81.9134L379.551 76.293H376.537C376.852 80.155 377.139 83.9843 376.537 87.5047C376.537 87.5047 382.818 89.8881 389.07 89.8881C397.445 89.8881 404.299 85.7718 404.299 78.0805C404.299 70.6277 398.087 67.8852 392.487 65.4127C387.891 63.3833 383.707 61.5359 383.707 57.4154C383.707 53.5825 387.29 52.1074 390.877 52.1074C393.832 52.1074 396.241 53.3027 396.843 54.7487L398.935 60.6525L401.891 60.3691C401.891 57.4154 402.206 53.5825 402.808 50.6324C400.114 49.4407 394.75 48.8449 391.163 48.8449C383.105 48.8449 376.852 52.4235 376.852 60.0857C376.852 67.379 382.627 69.8991 387.969 72.2304C392.566 74.2365 396.843 76.1028 396.843 80.7508C396.843 83.9879 394.75 86.6546 389.673 86.6546C384.911 86.6546 382.818 84.2677 381.93 81.9134ZM404.752 94.3901C404.199 97.9578 403.626 101.656 402.812 104.62C405.165 106.095 407.86 107.004 411.443 107C417.097 107 425.156 105.525 432.928 88.0969L446.034 57.7278C447.213 55.3445 447.528 55.0611 450.509 53.8695L452 52.7069V49.7568L444.257 50.0402L435.883 49.7568V52.7069L438.005 53.3064C440.072 53.8731 440.96 54.7523 440.96 56.2564C440.96 56.8092 440.847 57.1264 440.685 57.5819C440.589 57.851 440.476 58.1682 440.358 58.6107C439.47 60.9686 433.79 74.847 430.835 81.0342C427.248 72.1803 422.457 58.9231 421.884 57.1356C421.598 56.5398 421.598 56.2564 421.598 55.944C421.598 54.7487 422.461 53.5861 424.553 53.3027L427.248 52.7069V49.7532L416.234 50.349L407.258 50.0366V53.0157L408.778 53.5825C410.845 54.1783 411.131 54.4653 412.622 57.7278C416.728 66.6957 421.134 77.6521 424.062 84.9326C425.183 87.7217 426.088 89.9714 426.675 91.3631C421.888 99.6248 416.811 101.979 412.938 101.979C410.555 101.979 409.666 100.787 409.38 99.3123L408.176 93.1252L404.905 93.4085C404.854 93.7342 404.803 94.0616 404.752 94.3901Z" fill="#FF5500"/>
<path d="M18.624 36.584C20.3733 36.584 22.0373 36.776 23.616 37.16C25.2373 37.544 27.1147 38.2267 29.248 39.208C28.9067 40.104 28.608 40.872 28.352 41.512C28.1387 42.1093 27.9467 42.6427 27.776 43.112C27.648 43.5387 27.5413 43.9227 27.456 44.264C27.3707 44.6053 27.3067 44.9467 27.264 45.288H26.368C25.856 43.496 24.8533 42.1307 23.36 41.192C21.8667 40.2107 20.0747 39.72 17.984 39.72C15.6373 39.72 13.7813 40.36 12.416 41.64C11.0933 42.92 10.432 44.584 10.432 46.632C10.432 47.5707 10.56 48.4027 10.816 49.128C11.072 49.8533 11.5413 50.536 12.224 51.176C12.9067 51.816 13.8667 52.456 15.104 53.096C16.3413 53.6933 17.9627 54.3333 19.968 55.016C22.016 55.7413 23.7227 56.4667 25.088 57.192C26.496 57.9173 27.6267 58.8133 28.48 59.88C29.4613 61.1173 30.144 62.4613 30.528 63.912C30.9547 65.32 31.168 66.6427 31.168 67.88C31.168 69.8427 30.8053 71.6773 30.08 73.384C29.3547 75.0907 28.3093 76.584 26.944 77.864C25.5787 79.1013 23.9147 80.0827 21.952 80.808C20.032 81.5333 17.8773 81.896 15.488 81.896C13.3547 81.896 11.328 81.6613 9.408 81.192C7.53067 80.7227 5.376 79.8693 2.944 78.632C3.2 77.8213 3.392 77.16 3.52 76.648C3.69067 76.0933 3.81867 75.6027 3.904 75.176C3.98933 74.7067 4.07467 74.1947 4.16 73.64C4.24533 73.0853 4.33067 72.36 4.416 71.464H5.312C5.824 72.616 6.37867 73.64 6.976 74.536C7.616 75.432 8.32 76.2 9.088 76.84C9.856 77.48 10.7307 77.9707 11.712 78.312C12.6933 78.6107 13.8453 78.76 15.168 78.76C17.728 78.76 19.776 78.0133 21.312 76.52C22.848 74.984 23.616 73.064 23.616 70.76C23.616 69.1813 23.168 67.7307 22.272 66.408C21.4187 65.0427 19.7333 63.8693 17.216 62.888L14.144 61.672C12.352 60.9893 10.7947 60.2853 9.472 59.56C8.192 58.8347 7.104 58.024 6.208 57.128C5.35467 56.1893 4.71467 55.1013 4.288 53.864C3.904 52.6267 3.712 51.1333 3.712 49.384C3.712 47.464 4.032 45.736 4.672 44.2C5.35467 42.6213 6.31467 41.2773 7.552 40.168C8.832 39.016 10.3893 38.1413 12.224 37.544C14.1013 36.904 16.2347 36.584 18.624 36.584ZM35.399 33.576C35.9537 33.6613 36.615 33.7467 37.383 33.832C38.151 33.9173 38.9403 33.96 39.751 33.96C40.519 33.96 41.1803 33.9387 41.735 33.896C42.3323 33.8107 42.951 33.704 43.591 33.576C43.335 37.2027 43.1643 40.2533 43.079 42.728C43.0363 45.16 43.015 47.2293 43.015 48.936V55.208C44.167 53.544 45.575 52.264 47.239 51.368C48.903 50.4293 50.823 49.96 52.999 49.96C54.919 49.96 56.5617 50.28 57.927 50.92C59.2923 51.5173 60.3803 52.3067 61.191 53.288C61.6177 53.8 61.959 54.312 62.215 54.824C62.5137 55.2933 62.7483 55.848 62.919 56.488C63.0897 57.0853 63.1963 57.832 63.239 58.728C63.3243 59.5813 63.367 60.648 63.367 61.928C63.367 62.824 63.3457 63.9547 63.303 65.32C63.2603 66.6853 63.239 67.9227 63.239 69.032C63.239 70.2693 63.239 71.8267 63.239 73.704C63.2817 75.5387 63.4097 77.9707 63.623 81C62.343 80.744 61.0203 80.616 59.655 80.616C59.0577 80.616 58.375 80.6587 57.607 80.744C56.839 80.8293 56.0923 80.9147 55.367 81C55.623 78.312 55.7937 75.8587 55.879 73.64C56.007 71.3787 56.071 69.224 56.071 67.176V63.336C56.071 63.0373 56.0497 62.6533 56.007 62.184C56.007 61.672 55.9857 61.16 55.943 60.648C55.9003 60.136 55.8363 59.6667 55.751 59.24C55.6657 58.7707 55.5803 58.408 55.495 58.152C55.239 57.4267 54.8977 56.8293 54.471 56.36C54.0443 55.8907 53.575 55.528 53.063 55.272C52.5937 55.016 52.103 54.8453 51.591 54.76C51.1217 54.632 50.6737 54.568 50.247 54.568C49.095 54.568 47.943 54.8027 46.791 55.272C45.6817 55.6987 44.807 56.552 44.167 57.832C43.7403 58.6427 43.4417 59.6667 43.271 60.904C43.1003 62.1413 43.015 63.592 43.015 65.256V72.552C43.015 73.704 43.0363 75.048 43.079 76.584C43.1643 78.0773 43.2497 79.5493 43.335 81C42.567 80.872 41.863 80.7867 41.223 80.744C40.583 80.6587 39.943 80.616 39.303 80.616C38.8763 80.616 38.3643 80.6587 37.767 80.744C37.2123 80.7867 36.423 80.872 35.399 81C35.4843 79.2933 35.5483 77.7147 35.591 76.264C35.6763 74.7707 35.7403 73.3413 35.783 71.976C35.8257 70.568 35.847 69.1813 35.847 67.816C35.8897 66.4507 35.911 65.0213 35.911 63.528L35.847 44.2C35.847 41.7253 35.783 39.6773 35.655 38.056C35.527 36.4347 35.4417 34.9413 35.399 33.576ZM75.605 65.768C75.605 70.2907 76.2877 73.6613 77.653 75.88C79.061 78.0987 81.0663 79.208 83.669 79.208C86.229 79.208 88.213 78.0987 89.621 75.88C91.029 73.6613 91.733 70.2907 91.733 65.768C91.733 61.3733 91.0503 58.0453 89.685 55.784C88.3197 53.5227 86.293 52.392 83.605 52.392C81.045 52.392 79.061 53.5013 77.653 55.72C76.2877 57.896 75.605 61.2453 75.605 65.768ZM83.669 49.832C88.789 49.832 92.7357 51.24 95.509 54.056C98.325 56.872 99.733 60.7973 99.733 65.832C99.733 68.3067 99.349 70.5253 98.581 72.488C97.8557 74.4507 96.789 76.136 95.381 77.544C94.0157 78.9093 92.3303 79.9547 90.325 80.68C88.3623 81.4053 86.1437 81.768 83.669 81.768C81.1943 81.768 78.9543 81.4053 76.949 80.68C74.9863 79.912 73.301 78.8453 71.893 77.48C70.5277 76.072 69.461 74.3867 68.693 72.424C67.9677 70.4613 67.605 68.264 67.605 65.832C67.605 63.4 67.989 61.2027 68.757 59.24C69.525 57.2347 70.613 55.5493 72.021 54.184C73.429 52.776 75.1143 51.7093 77.077 50.984C79.0397 50.216 81.237 49.832 83.669 49.832ZM111.047 65.64C111.047 69.6507 111.708 72.7227 113.031 74.856C114.353 76.9467 116.359 77.992 119.047 77.992C120.241 77.992 121.308 77.6933 122.247 77.096C123.185 76.4987 123.975 75.688 124.615 74.664C125.255 73.5973 125.724 72.3387 126.023 70.888C126.364 69.3947 126.535 67.752 126.535 65.96C126.535 61.9493 125.873 58.8347 124.551 56.616C123.271 54.3973 121.329 53.288 118.727 53.288C117.489 53.288 116.401 53.5867 115.463 54.184C114.524 54.7813 113.713 55.6347 113.031 56.744C112.391 57.8107 111.9 59.112 111.559 60.648C111.217 62.1413 111.047 63.8053 111.047 65.64ZM120.775 49.384C122.823 49.384 124.7 49.832 126.407 50.728C128.113 51.5813 129.564 52.7333 130.759 54.184C131.953 55.6347 132.871 57.32 133.511 59.24C134.193 61.1173 134.535 63.08 134.535 65.128C134.535 67.3893 134.215 69.5227 133.575 71.528C132.935 73.4907 131.996 75.1973 130.759 76.648C129.564 78.0987 128.071 79.2507 126.279 80.104C124.487 80.9147 122.439 81.32 120.135 81.32C118.129 81.32 116.423 80.9787 115.015 80.296C113.607 79.5707 112.284 78.5253 111.047 77.16C111.047 79.848 111.047 82.2373 111.047 84.328C111.089 86.4187 111.132 88.2747 111.175 89.896C111.26 91.56 111.345 93.0107 111.431 94.248C111.516 95.4853 111.623 96.616 111.751 97.64C111.111 97.512 110.449 97.4053 109.767 97.32C109.127 97.2773 108.38 97.256 107.527 97.256C106.759 97.256 106.097 97.2773 105.543 97.32C105.031 97.4053 104.369 97.512 103.559 97.64C103.687 95.9333 103.793 93.928 103.879 91.624C104.007 89.3627 104.092 87.08 104.135 84.776C104.22 82.5147 104.263 80.3813 104.263 78.376C104.305 76.328 104.327 74.6853 104.327 73.448C104.327 71.3573 104.305 69.2453 104.263 67.112C104.263 64.936 104.22 62.824 104.135 60.776C104.092 58.728 104.028 56.808 103.943 55.016C103.857 53.224 103.751 51.6453 103.623 50.28C104.903 50.4507 105.777 50.5573 106.247 50.6C106.759 50.6427 107.185 50.664 107.527 50.664C107.911 50.664 108.316 50.6427 108.743 50.6C109.212 50.5573 109.959 50.4507 110.983 50.28L110.791 54.76C113.351 51.176 116.679 49.384 120.775 49.384ZM159.785 59.24C159.785 62.056 160.105 64.6587 160.745 67.048C161.428 69.3947 162.409 71.4427 163.689 73.192C164.969 74.8987 166.548 76.2427 168.425 77.224C170.302 78.1627 172.457 78.632 174.889 78.632C177.15 78.632 179.198 78.184 181.033 77.288C182.91 76.3493 184.51 75.048 185.833 73.384C187.156 71.6773 188.18 69.6293 188.905 67.24C189.63 64.8507 189.993 62.184 189.993 59.24C189.993 52.968 188.713 48.168 186.153 44.84C183.593 41.512 179.817 39.848 174.825 39.848C172.393 39.848 170.238 40.36 168.361 41.384C166.526 42.408 164.969 43.816 163.689 45.608C162.409 47.3573 161.428 49.4053 160.745 51.752C160.105 54.0987 159.785 56.5947 159.785 59.24ZM175.081 36.584C178.622 36.584 181.844 37.096 184.745 38.12C187.689 39.144 190.185 40.5947 192.233 42.472C194.324 44.3493 195.924 46.6533 197.033 49.384C198.185 52.072 198.761 55.08 198.761 58.408C198.761 61.9067 198.185 65.1067 197.033 68.008C195.924 70.8667 194.345 73.3413 192.297 75.432C190.249 77.48 187.774 79.08 184.873 80.232C181.972 81.3413 178.772 81.896 175.273 81.896C171.817 81.896 168.617 81.4267 165.673 80.488C162.729 79.5067 160.169 78.0987 157.993 76.264C155.817 74.3867 154.11 72.1253 152.873 69.48C151.636 66.792 151.017 63.7413 151.017 60.328C151.017 56.36 151.614 52.904 152.809 49.96C154.046 46.9733 155.732 44.4987 157.865 42.536C159.998 40.5307 162.537 39.0373 165.481 38.056C168.425 37.0747 171.625 36.584 175.081 36.584ZM220.493 49.96C223.949 49.96 226.594 50.8987 228.429 52.776C230.264 54.6533 231.181 57.3413 231.181 60.84C231.181 61.0533 231.16 61.7147 231.117 62.824C231.117 63.8907 231.096 65.1067 231.053 66.472C231.01 67.8373 230.968 69.16 230.925 70.44C230.925 71.72 230.925 72.616 230.925 73.128C230.925 74.792 230.968 76.3493 231.053 77.8C231.138 79.208 231.245 80.2747 231.373 81C230.648 80.9147 229.944 80.8293 229.261 80.744C228.621 80.6587 227.938 80.616 227.213 80.616C226.488 80.616 225.762 80.6587 225.037 80.744C224.354 80.8293 223.693 80.9147 223.053 81C223.181 80.1893 223.33 78.5893 223.501 76.2C223.714 73.8107 223.821 70.888 223.821 67.432C223.821 65.768 223.8 64.36 223.757 63.208C223.757 62.056 223.714 61.096 223.629 60.328C223.544 59.5173 223.416 58.856 223.245 58.344C223.117 57.832 222.946 57.384 222.733 57C221.666 55.2507 219.917 54.376 217.485 54.376C216.589 54.376 215.608 54.632 214.541 55.144C213.517 55.656 212.706 56.4027 212.109 57.384C211.768 57.9387 211.49 58.6 211.277 59.368C211.106 60.136 210.957 60.968 210.829 61.864C210.744 62.7173 210.68 63.5707 210.637 64.424C210.637 65.2773 210.637 66.088 210.637 66.856C210.637 67.88 210.637 69.0107 210.637 70.248C210.637 71.4427 210.658 72.68 210.701 73.96C210.744 75.24 210.786 76.4987 210.829 77.736C210.914 78.9307 211 80.0187 211.085 81C210.786 81 210.424 80.9787 209.997 80.936C209.613 80.8933 209.208 80.8507 208.781 80.808C208.397 80.7653 208.034 80.7227 207.693 80.68C207.352 80.6373 207.117 80.616 206.989 80.616C205.922 80.616 204.6 80.744 203.021 81C203.192 78.9093 203.32 76.9893 203.405 75.24C203.49 73.448 203.554 71.8053 203.597 70.312C203.64 68.776 203.661 67.3467 203.661 66.024C203.661 64.7013 203.661 63.4213 203.661 62.184C203.661 60.3493 203.618 58.4293 203.533 56.424C203.49 54.4187 203.362 52.3707 203.149 50.28C204.13 50.4507 204.877 50.5573 205.389 50.6C205.944 50.6427 206.584 50.664 207.309 50.664C208.077 50.664 208.696 50.6427 209.165 50.6C209.634 50.5147 210.21 50.408 210.893 50.28C210.808 50.7493 210.722 51.3467 210.637 52.072C210.594 52.7973 210.573 53.3307 210.573 53.672V55.656C212.066 53.5653 213.538 52.0933 214.989 51.24C216.482 50.3867 218.317 49.96 220.493 49.96Z" fill="#FF5500"/>
</svg>
